<?xml version="1.0" encoding="utf-8"?>
<!-- Generator: Adobe Illustrator 20.0.0, SVG Export Plug-In . SVG Version: 6.00 Build 0)  -->
<svg version="1.1" id="圖層_1" xmlns="http://www.w3.org/2000/svg" xmlns:xlink="http://www.w3.org/1999/xlink" x="0px" y="0px"
	 viewBox="0 0 89.1 88.5" style="enable-background:new 0 0 89.1 88.5;" xml:space="preserve">
<style type="text/css">
	.st0{fill:#212e38;}
	.st1{fill:none;stroke:#212e38;stroke-width:3;stroke-miterlimit:10;}
</style>
<g>
	<path class="st0" d="M52.8,1c-2.6-0.5-5.3-0.7-8-0.7c-6,0-11.8,1.2-17,3.4c-1.8,0.8-3.6,1.7-5.3,2.7C9.4,14,0.7,28.2,0.7,44.4
		c0,21.4,15.3,39.3,35.6,43.3c2.5,0.5,5,0.8,7.6,0.8c0.3,0,0.6,0,0.9,0c12.5,0,23.9-5.2,31.9-13.6c7.6-7.9,12.2-18.7,12.2-30.5
		C88.9,22.7,73.4,4.8,52.8,1z M4,44.4c0-14.5,7.6-27.2,19-34.5c0,0.6-0.1,1.2-0.3,1.8c-0.5,1.6-1.9,3.6-3,4.9c-2,2.3-4.2,4.2-6,6.6
		c-1.7,2.3-1.4,4.1-0.6,6.8c0.6,1.9,0.1,3.5,0,5.4c-0.1,1.2,0,2.9,0.6,3.9c0.8,1.3,2.6,2.4,3.7,3.4l1.3,0.8c2.4,2,3.2,5.6,6.4,6.3
		c0.9,0.2,1.8,0.2,2.1,1.3c0.3,1.1-0.8,2.2-1.2,3.1c-1,2.4-0.3,4.6,0.4,7c0.6,1.8,0.7,3.2,2.2,4.4c1.3,1.1,3.2,2.1,4.3,3.4
		c1.3,1.5,0.6,3.3,0.6,5.1c0,2.2,0.3,4.4,0.4,6.6c0,1.1,0.3,2.1,0.6,3C16.9,79.3,4,63.3,4,44.4z M44.8,85.2c-2.1,0-4.1-0.2-6.1-0.5
		c-0.5-0.7-0.8-1.6-0.6-2.7c0.5-2.2,4.5-3.9,6.2-5.2c2.7-1.9,5.8-3.6,8.1-6c0.7-0.8,1.1-2.3,2-3.6c0.5-0.7,1.9-0.4,2.2-1.2
		c0.6-1.4,0.7-3.5,0.2-4.8c-0.6-1.5-3-2.3-4.3-3c-1.3-0.7-2.9-0.9-4.1-1.6c-1.2-0.7-2.2-2.6-3.4-3.3c-1.5-1-3.3-0.6-4.8-1.6
		c-1.4-1-2.4-2.8-4-3.3c-3.3-0.9-6.3,0.2-9.5,0.1c-2.1-0.1-2.8-2.3-3.4-4.1c-0.4-1.3-0.1-4.5-1.3-5.1c-1.7-0.8-4.8,1-4.9-2.2
		c-0.1-3,3.6-5.1,6.3-4.1c2.5,0.9,2,2.4,1.8,4.5c-0.3,2.2,1.9,4.6,4.2,4.3c2.5-0.3,1.9-3.6,0.6-5c-0.5-0.5-1.1-0.8-1.9-0.9
		c-2.6-4.8,3.1-3.9,4.6-7.1c0.2-0.4,0.6-0.5,0.7-0.6c1.1-0.5,2.2-0.3,2.7-1.5c0.3-0.7,0.4-1.1,1.3-1.3c1-0.2,2.2,0.3,3.2-0.3
		c0.5-0.3,1-1.2,0.4-1.7c-0.6-0.5-1.6-0.1-2.2-0.9c0.6-1.9,4.5-0.6,4.4-2.9c-0.1-1.7-1.8-3.3-3.4-3.6c-0.8-0.1-1.3-0.1-1.9-0.6
		c-0.6-0.5-1-1.1-1.9-0.7c-1.4,0.6-1.5,4.9-3.2,4.3c-1-0.3-1.2-2.2-1.7-3c-1.1-1.7,0.3-2.6,2.1-2.9c2.1-0.4,4.9-0.2,6.4-2
		c1.7-2.1-2-1.7-3.1-1.5c-1.7,0.3-6.4,1-6.1-1.6c0.1-0.8-1.3,0.1-1.5-0.6c-0.1-0.3,0-0.8,0.8-1.3c4.7-1.9,9.8-2.9,15.1-2.9
		c5.2,0,10.1,1,14.6,2.7c0.2,0.5,0.2,1-0.2,1.6c-0.6,0.8-1.4,1-1,2.2c0.5,1.3,2,1.9,3.2,2.5c1.1,0.6,2.2,1.3,3,2.2
		c0.4,0.4,1.8,1.8,1.1,2.5c-0.7,0.7-2.5-0.7-3.1-1c-0.8-0.4-2.1-1.1-1.5,0.2c0.2,0.4,0.6,0.6,0.6,1.1c0,0.4-0.3,0.7-0.3,1
		c-0.1,0.8,0.6,1.8,1.2,0.9c0.6-0.9,0.1-1.7,1.3-0.7c0.3,0.3,0.6,0.7,1,0.7c0.3,0,0.5-0.5,0.8-0.5c1.2-0.1,0.1,1.2,0,1.6
		c-0.1,0.4-0.3,0.1,0,0.5c0.2,0.3,1.2,0.4,1.5,0.6c0.8,0.4,1.1,0.8,0.4,1.5c-0.5,0.5-1.5,0.7-1.8,1.4c-0.4,0.8,0.3,2,1,2.4
		c1.6,1,3.9,0.6,3.9-1.6c0-1-1.1-2.1-0.6-3.1c0.8-1.7,3.2,0.1,4,0.9c0.6,0.6,1,1.3,1.4,2c1.1-0.8-0.7-1.6-0.5-2.5
		c1.1-0.1,1.5,1.7,2.4,0.4c0.4-0.6,0.1-1,0.9-0.7c0.5,0.2,1.2,1.3,1.4,1.8c0.1,0.4,0.2,1.3-0.1,1.7c-0.4,0.5-0.4,0.1-0.8,0.2
		c-0.4,0.2-0.4-0.1-0.7,0.5c-0.2,0.4-0.1,1,0.1,1.4c-1.3-0.2-1.9-0.9-3-1.6c-1.4-0.8-3,0.3-4.1,1.3c-1.3,1.2-1.7,2.4-1.9,4.1
		c-0.2,1.8-1,3.3-1.6,5c-0.5,1.5-0.3,2.8-0.1,4.3c0.2,1.6,0.3,3.3,0.8,4.9c0.8,2.8,2.5,5,5.4,4.1c2.2-0.7,7-4.2,7.7-1.8
		c1.9,6.6,0.4,12.9-2.7,19C71.4,78,59,85.2,44.8,85.2z"/>
	<path class="st0" d="M45,7.1h0.1c-0.9,0-2.8,0.1-3.3,0.9c-0.6,1,1.1,1.7,1.7,2.2c0.9,0.8,1.6,1.7,1.6,2.9c0,0.8-0.2,1.2,0.3,1.9
		c0.4,0.6,1.5,1.4,2.2,1.2c0.8-0.3,0.8-1.4,1.2-2.1c1-1.8,3.4-1.6,2.3-4.2C49.9,7.2,47.9,6.8,45,7.1z"/>
</g>
<circle class="st1" cx="44.8" cy="44.4" r="40.8"/>
</svg>
